<svg xmlns="http://www.w3.org/2000/svg" version="1.0" width="180" height="180" preserveAspectRatio="xMidYMid meet" style=""><rect id="backgroundrect" width="100%" height="100%" x="0" y="0" fill="none" stroke="none" class="" style=""/>
<g class="currentLayer" style=""><title>Layer 1</title><g transform="rotate(-0.11360789090394974 89.72205352784896,89.03566741943898) translate(0,200) scale(0.10000000149011612,-0.10000000149011612) " fill="#FFFFFF" stroke="none" id="svg_1" class="">
<path d="M-2.738648414611817,1109.5890727043152 l0,-900 l900,0 l900,0 l0,400 l0,400 l-115,0 l-115,0 l0,-285 l0,-285 l-670,0 l-670,0 l0,670 l0,670 l285,0 l285,0 l0,115 l0,115 l-400,0 l-400,0 l0,-900 z" id="svg_2"/>
<path d="M1017.2613515853882,1894.5890727043152 l0,-115 l193,0 l192,0 l-302,-301 c-167,-166 -303,-304 -303,-308 c0,-3 36,-42 80,-86 l80,-80 l305,305 l305,305 l0,-193 l0,-192 l115,0 l115,0 l0,390 l0,390 l-390,0 l-390,0 l0,-115 z" id="svg_3"/>
</g></g></svg>
