<svg width="993" height="294" viewBox="0 0 993 294" fill="none" xmlns="http://www.w3.org/2000/svg">
<path d="M335.984 218.194V75.812H370.472L385.66 170.734L402.034 75.812H435.336V218.195H414.137L413.504 118.052C411.922 128.335 409.153 145.026 405.198 168.123C401.243 191.22 398.474 207.911 396.892 218.194H375.376L357.895 117.419L357.262 218.194H335.984V218.194Z" fill="white"/>
<path d="M448.375 218.194V75.812H507.781V95.587H477.168V134.347H498.841V154.597H477.168V198.419H507.781V218.194H448.375Z" fill="white"/>
<path d="M538.07 218.194V97.3271H517.187V75.811H587.35V97.3271H566.863V218.194H538.07Z" fill="white"/>
<path d="M579.612 218.194L610.383 75.811H635.854L666.545 218.194H638.148L632.294 187.74H613.705L608.168 218.194H579.612ZM615.683 170.021H630.396L623.198 117.181L615.683 170.021Z" fill="white"/>
<path d="M675.559 218.194V75.812H704.352V198.419H732.67V218.194H675.559Z" fill="white"/>
<path d="M742.493 218.194V75.812H771.286V129.838L793.593 75.812H825.787L796.757 134.11L827.923 218.195H798.023L776.507 153.094L771.286 166.541V218.194H742.493V218.194Z" fill="white"/>
<path d="M842.331 142.89C835.37 135.719 831.89 125.567 831.89 112.436C831.89 100.254 834.988 90.6311 841.185 83.5641C847.38 76.4981 856.463 72.9641 868.435 72.9641C880.406 72.9641 889.449 76.5111 895.567 83.6031C901.684 90.6971 904.743 100.307 904.743 112.436C904.743 125.778 901.289 135.929 894.381 142.89C896.912 144.947 899.021 147.254 900.709 149.812C902.397 152.37 903.662 155.138 904.506 158.117C905.349 161.097 905.93 163.998 906.246 166.818C906.562 169.64 906.721 172.843 906.721 176.429C906.721 183.18 906.049 189.164 904.703 194.385C903.359 199.606 901.235 204.234 898.336 208.267C895.436 212.302 891.467 215.374 886.432 217.483C881.395 219.591 875.397 220.647 868.436 220.647C842.913 220.647 830.151 205.908 830.151 176.429C830.151 168.888 830.968 162.388 832.603 156.931C834.235 151.472 837.479 146.793 842.331 142.89ZM864.242 197.589C865.455 198.09 866.852 198.34 868.434 198.34C870.016 198.34 871.426 198.076 872.666 197.549C873.904 197.023 874.906 196.402 875.672 195.691C876.436 194.978 877.108 193.977 877.689 192.685C878.269 191.393 878.69 190.246 878.955 189.244C879.219 188.243 879.416 186.924 879.548 185.289C879.68 183.655 879.759 182.415 879.786 181.571C879.811 180.728 879.825 179.542 879.825 178.011C879.825 162.402 876.028 154.597 868.434 154.597C860.788 154.597 856.964 162.402 856.964 178.011C856.964 179.488 856.977 180.688 857.004 181.611C857.029 182.534 857.122 183.786 857.28 185.368C857.438 186.95 857.648 188.256 857.913 189.283C858.177 190.312 858.598 191.459 859.179 192.724C859.759 193.99 860.445 194.992 861.236 195.73C862.027 196.469 863.028 197.088 864.242 197.589ZM868.435 133.239C869.648 133.239 870.742 132.923 871.718 132.29C872.693 131.657 873.497 130.894 874.13 129.996C874.763 129.1 875.289 127.888 875.712 126.357C876.134 124.828 876.45 123.469 876.661 122.284C876.871 121.096 877.029 119.595 877.136 117.774C877.241 115.956 877.307 114.598 877.333 113.701C877.359 112.805 877.373 111.593 877.373 110.062C877.373 99.8321 874.394 94.7161 868.435 94.7161C866.537 94.7161 864.941 95.2311 863.65 96.2581C862.357 97.2871 861.421 98.6711 860.841 100.411C860.26 102.151 859.864 103.773 859.654 105.275C859.443 106.779 859.338 108.374 859.338 110.061C859.338 111.749 859.364 113.199 859.417 114.412C859.469 115.626 859.575 117.247 859.733 119.277C859.891 121.307 860.169 123.034 860.563 124.458C860.959 125.882 861.473 127.319 862.106 128.77C862.739 130.221 863.595 131.328 864.676 132.092C865.757 132.856 867.011 133.239 868.435 133.239Z" fill="white"/>
<path d="M915.674 177.457L944.862 171.841C944.862 174.741 944.914 177.299 945.02 179.514C945.125 181.729 945.402 184.142 945.85 186.751C946.298 189.362 946.905 191.497 947.67 193.159C948.434 194.819 949.515 196.218 950.912 197.35C952.309 198.485 953.958 199.051 955.856 199.051C961.551 199.051 964.399 195.412 964.399 188.135C964.399 178.168 958.783 168.254 947.55 158.393L938.612 150.799C935.764 148.426 933.497 146.448 931.809 144.866C930.121 143.284 928.13 141.148 925.837 138.459C923.542 135.77 921.749 133.173 920.458 130.668C919.165 128.163 918.058 125.144 917.136 121.61C916.212 118.078 915.751 114.333 915.751 110.378C915.751 98.8291 919.416 89.6931 926.746 82.9691C934.075 76.2461 943.805 72.884 955.934 72.884C966.006 72.884 974.575 76.4711 981.642 83.6421C988.708 90.8141 992.242 99.462 992.242 109.587L992.163 110.615C992.163 111.301 992.163 112.092 992.163 112.988L962.421 117.101C962.421 116.521 962.46 115.612 962.54 114.372C962.618 113.133 962.658 112.117 962.658 111.326C962.658 109.428 962.526 107.608 962.262 105.868C961.997 104.128 961.563 102.388 960.957 100.647C960.35 98.907 959.414 97.5221 958.148 96.4951C956.882 95.4661 955.352 94.9521 953.56 94.9521C950.396 94.9521 948.023 96.191 946.441 98.67C944.859 101.149 944.068 104.076 944.068 107.45C944.068 110.404 944.529 113.173 945.453 115.756C946.375 118.34 947.772 120.753 949.644 122.993C951.516 125.235 953.244 127.095 954.826 128.57C956.408 130.047 958.516 131.852 961.154 133.989C963.791 136.124 965.663 137.694 966.77 138.695C970.831 142.282 974.257 145.643 977.053 148.78C979.848 151.919 982.484 155.465 984.963 159.42C987.442 163.375 989.3 167.647 990.54 172.234C991.778 176.822 992.398 181.779 992.398 187.105C992.398 197.072 988.838 205.233 981.719 211.586C974.6 217.941 965.95 221.118 955.774 221.118C949.181 221.118 943.328 219.904 938.213 217.479C933.098 215.054 928.971 211.757 925.834 207.591C922.695 203.426 920.283 198.811 918.596 193.748C916.912 188.689 915.938 183.259 915.674 177.457Z" fill="white"/>
<path d="M294.064 293.613H0.996094V0.550049H294.064V293.613ZM26.6311 267.978H268.427V26.1871H26.6311V267.978Z" fill="white"/>
<path d="M258.142 199.444H199.276V258.289H258.142V199.444Z" fill="white"/>
<path d="M188.299 199.444H129.432V258.289H188.299V199.444Z" fill="white"/>
<path d="M258.206 131.394H199.341V190.259H258.206V131.394Z" fill="white"/>
</svg>
